<?xml version="1.0" encoding="UTF-8" standalone="no"?> <svg width="64" height="64" viewBox="0 0 64 64" fill="none" xmlns="http://www.w3.org/2000/svg">
<path d="M61 2H3C2.4 2 2 2.4 2 3V45C2 45.6 2.4 46 3 46H20.8C22.3 50.5 23 55.3 23 60C23 60.4 23.3 60.8 23.7 60.9C23.8 60.9 23.9 61 24 61C24.3 61 24.6 60.9 24.8 60.6L27.7 56.7L31.2 60.6C31.4 60.8 31.7 60.9 31.9 60.9C32.1 60.9 32.5 60.8 32.6 60.6L36.2 56.6L39 60.5C39.2 60.8 39.5 60.9 39.8 60.9C39.9 60.9 40 60.9 40.1 60.9C40.5 60.8 40.8 60.4 40.8 59.9C40.8 55.2 41.6 50.4 43 45.9H61C61.6 45.9 62 45.5 62 44.9V3C62 2.4 61.6 2 61 2ZM20.6 40H24.5L26.8 43.2L26.1 44H22.2C21.7 42.6 21.2 41.3 20.6 40ZM36 36H21V17H30.1C28.8 19 28 21.4 28 24C28 29.4 31.3 34 36 36ZM29.8 44L29.2 43.2L31.5 40H32.5L35.2 43.7L34.9 44H29.8ZM33.4 46L32.3 47.5L31.2 46H33.4ZM35 40H38L36.5 42L35 40ZM29 40L28 41.5L27 40H29ZM23.4 47.8C23.2 47.2 23.1 46.6 22.9 46H24.7L23.4 47.8ZM24.9 57.2C24.8 55.9 24.7 54.5 24.5 53.2L26.4 55.3L24.9 57.2ZM27.6 53.6L24.3 49.9L27.2 46H28.8L31 49.1L27.6 53.6ZM32 58.5L29 55.1L32.3 50.8L35.2 54.9L32 58.5ZM39.1 57L37.7 55.1L39.5 53.1C39.3 54.4 39.2 55.7 39.1 57ZM36.6 53.4L33.6 49.1L36 45.9H36.9L39.8 49.8L36.6 53.4ZM40.6 47.8L39.3 46H41.1C40.9 46.6 40.8 47.2 40.6 47.8ZM41.8 44H37.9L37.7 43.7L40.5 40H43.4C42.8 41.3 42.3 42.6 41.8 44ZM43 35.1C42.9 35.1 42.7 35.1 42.6 35C42.1 34.8 41.9 34.2 42.1 33.7C43.3 30.9 43.9 28 44 25H40.9C40.5 28 38.5 30.8 35.2 32.9C35 33 34.8 33 34.7 33C34.4 33 34 32.8 33.8 32.5C33.5 32 33.7 31.4 34.1 31.1C36.8 29.4 38.5 27.3 38.9 25H31.1C30.5 25 30.1 24.6 30.1 24C30.1 23.4 30.5 23 31.1 23H38.9C38.5 20.5 36.6 18.2 33.6 16.5C33.1 16.2 32.9 15.6 33.2 15.1C33.5 14.6 34.1 14.4 34.6 14.7C38.3 16.8 40.5 19.7 40.9 22.9H44C43.9 19.9 43.2 17 42.1 14.3C41.9 13.8 42.1 13.2 42.6 13C43.1 12.8 43.7 13 43.9 13.5C45.2 16.5 45.8 19.6 46 22.9H48.1C48.2 21.6 48.6 20.3 49.2 19.2C49.5 18.7 50.1 18.5 50.6 18.8C51.1 19.1 51.3 19.7 51 20.2C50.5 21.1 50.2 22 50.1 23H51C51.6 23 52 23.4 52 24C52 24.6 51.6 25 51 25H50.1C50.2 26 50.5 26.9 51 27.7C51.3 28.2 51.1 28.8 50.6 29.1C50.5 29.2 50.3 29.2 50.1 29.2C49.7 29.2 49.4 29 49.2 28.7C48.6 27.6 48.2 26.3 48.1 25H46C45.9 28.3 45.2 31.4 43.9 34.4C43.7 34.8 43.4 35.1 43 35.1ZM60 44H43.9C44.4 42.6 45 41.3 45.6 40H46C47.1 40 48 39.1 48 38C48 36.9 47.1 36 46 36C50.7 34 54 29.4 54 24C54 16.8 48.2 11 41 11C37.3 11 34 12.5 31.6 15H20C19.4 15 19 15.4 19 16V36H18C16.9 36 16 36.9 16 38C16 39.1 16.9 40 18 40H18.4C19 41.3 19.6 42.6 20.1 44H4V4H60V44Z" fill="black"/>
</svg>
