<?xml version="1.0" encoding="UTF-8" standalone="no"?> <svg id="stroke" xmlns="http://www.w3.org/2000/svg" viewBox="0 0 340 340"><path d="M299.1,259.431a9.325,9.325,0,0,0,6.062-11.9l-2.324-6.869A9.3,9.3,0,0,0,291.8,234.6l-4.24-14.433a12.657,12.657,0,0,0-24.288,7.134l4.256,14.492-8.1,2.411-18.415-62.7A18.654,18.654,0,0,0,237,157.789V136.382a10.263,10.263,0,0,0-10.252-10.251h-3.8a10.262,10.262,0,0,0-10.251,10.251v21.407a18.625,18.625,0,0,0-5.554,20.384L170.879,301.634a12.674,12.674,0,0,0,5.36,14.242l-3.58,12.189a3.5,3.5,0,1,0,6.717,1.973l3.577-12.181.064,0a12.681,12.681,0,0,0,12.15-9.091L223.588,212l21.919,74.631c.953,3.244,6.462,11.241,15.711,8.577s9.531-12.467,8.578-15.711l-3.065-10.436,8.105-2.411,13.381,45.559a30.394,30.394,0,0,0,10.868,15.658s5.442,3.556,8.734,2.542,4.856-7.509,4.856-7.509a30.129,30.129,0,0,0,.034-17.133Zm-29.106-34.108a5.658,5.658,0,0,1,10.857-3.188l4.238,14.432-10.845,3.226ZM224.845,183.8A11.753,11.753,0,1,1,236.6,172.046,11.766,11.766,0,0,1,224.845,183.8Zm-5.151-47.417a3.254,3.254,0,0,1,3.251-3.251h3.8A3.255,3.255,0,0,1,230,136.382v17.647a18.393,18.393,0,0,0-10.3,0ZM188.451,306.8c-.426,1.45-3.16,4.877-7.023,3.833s-4.259-5.571-3.833-7.022L212.184,185.84a18.674,18.674,0,0,0,10.381,4.806Zm70.795-18.3c-3.489.9-6.6-2.383-7.022-3.833l-24.989-85.078,2.8-9.532a18.661,18.661,0,0,0,5.438-2.573l27.607,93.995C263.506,282.924,262.734,287.6,259.246,288.5Zm2.154-37.581,31.934-9.5a2.33,2.33,0,0,1,2.872,1.492l2.323,6.869a2.309,2.309,0,0,1-1.566,2.993l-32.2,9.578ZM305.967,320.9l-.822,2.758-1.863-1.394a23.348,23.348,0,0,1-8.349-12.029l-13.388-45.581,10.846-3.226,13.6,46.311A23.146,23.146,0,0,1,305.967,320.9Z"/><path d="M248.853,151.169a3.5,3.5,0,0,0,4.461-2.145A107.1,107.1,0,0,0,55.346,67.968c-.012.026-.031.047-.043.073a106.156,106.156,0,0,0-10.138,45.537,108.63,108.63,0,0,0,.777,12.969,3.5,3.5,0,0,0,3.471,3.08,3.555,3.555,0,0,0,.423-.025,3.5,3.5,0,0,0,3.056-3.9,101.461,101.461,0,0,1-.727-12.129,99.207,99.207,0,0,1,8.044-39.363l90.546,42.531a3.672,3.672,0,0,0,3.365-.214,3.4,3.4,0,0,0,1.623-2.954V13.568a100.149,100.149,0,0,1,90.966,133.14A3.5,3.5,0,0,0,248.853,151.169Zm-100.11-43.1L63.19,67.882a100.619,100.619,0,0,1,85.553-54.32Z"/><path d="M77.264,137.5c-28.71,0-51.2,12.3-51.2,28.009v139.98c0,15.706,22.49,28.009,51.2,28.009s51.2-12.3,51.2-28.009V218a107.745,107.745,0,0,0,50.608-.73,3.5,3.5,0,1,0-1.749-6.778,101.349,101.349,0,0,1-48.859.316V165.511C128.463,149.805,105.974,137.5,77.264,137.5Zm0,7c23.958,0,44.2,9.621,44.2,21.009s-20.241,21.008-44.2,21.008-44.2-9.621-44.2-21.008S53.305,144.5,77.264,144.5Zm0,182c-23.959,0-44.2-9.621-44.2-21.009V179.839c8.814,8.248,25.13,13.68,44.2,13.68s35.386-5.432,44.2-13.68V305.491C121.463,316.879,101.222,326.5,77.264,326.5Z"/></svg>