<?xml version="1.0" encoding="utf-8"?>
<!-- Generator: Adobe Illustrator 23.0.3, SVG Export Plug-In . SVG Version: 6.00 Build 0)  -->
<svg version="1.1" id="Layer_1" xmlns="http://www.w3.org/2000/svg" xmlns:xlink="http://www.w3.org/1999/xlink" x="0px" y="0px"
	 viewBox="0 0 512 512" style="enable-background:new 0 0 512 512;" xml:space="preserve">
<style type="text/css">
	.st0{fill:#020202;}
	.st1{fill:#FFFFFF;}
	.st2{fill:url(#SVGID_1_);}
	.st3{fill:url(#SVGID_2_);}
	.st4{fill:url(#SVGID_3_);}
	.st5{fill:url(#SVGID_4_);}
	.st6{fill:url(#SVGID_5_);}
	.st7{fill:url(#SVGID_6_);}
	.st8{fill:url(#SVGID_7_);}
	.st9{fill:url(#SVGID_8_);}
	.st10{fill:url(#SVGID_9_);}
	.st11{fill:url(#SVGID_10_);}
	.st12{fill:url(#SVGID_11_);}
	.st13{fill:url(#SVGID_12_);}
	.st14{fill:url(#SVGID_13_);}
	.st15{fill:url(#SVGID_14_);}
	.st16{fill:url(#SVGID_15_);}
	.st17{fill:url(#SVGID_16_);}
	.st18{fill:#1B83B8;}
	.st19{fill:url(#SVGID_17_);}
	.st20{fill:url(#SVGID_18_);}
	.st21{fill:url(#SVGID_19_);}
	.st22{fill:url(#SVGID_20_);}
	.st23{fill:url(#SVGID_21_);}
	.st24{fill:url(#SVGID_22_);}
	.st25{fill:url(#SVGID_23_);}
	.st26{fill:url(#SVGID_24_);}
	.st27{fill:url(#SVGID_25_);}
	.st28{fill:url(#SVGID_26_);}
	.st29{fill:url(#SVGID_27_);}
	.st30{fill:url(#SVGID_28_);}
	.st31{fill:url(#SVGID_29_);}
	.st32{fill:url(#SVGID_30_);}
	.st33{fill:url(#SVGID_31_);}
	.st34{fill:url(#SVGID_32_);}
	.st35{fill:url(#SVGID_33_);}
	.st36{fill:url(#SVGID_34_);}
	.st37{fill:url(#SVGID_35_);}
	.st38{fill:url(#SVGID_36_);}
	.st39{fill:url(#SVGID_37_);}
	.st40{fill:url(#SVGID_38_);}
	.st41{fill:url(#SVGID_39_);}
	.st42{fill:url(#SVGID_40_);}
	.st43{fill:url(#SVGID_41_);}
	.st44{fill:url(#SVGID_42_);}
	.st45{fill:url(#SVGID_43_);}
	.st46{fill:url(#SVGID_44_);}
	.st47{fill:url(#SVGID_45_);}
	.st48{fill:url(#SVGID_46_);}
	.st49{fill:url(#SVGID_47_);}
	.st50{fill:url(#SVGID_48_);}
	.st51{fill:url(#SVGID_49_);}
	.st52{fill:url(#SVGID_50_);}
	.st53{fill:url(#SVGID_51_);}
	.st54{fill:url(#SVGID_52_);}
	.st55{fill:url(#SVGID_53_);}
	.st56{fill:url(#SVGID_54_);}
	.st57{fill:url(#SVGID_55_);}
	.st58{fill:url(#SVGID_56_);}
	.st59{fill:url(#SVGID_57_);}
	.st60{fill:url(#SVGID_58_);}
	.st61{fill:url(#SVGID_59_);}
	.st62{fill:url(#SVGID_60_);}
	.st63{fill:url(#SVGID_61_);}
	.st64{fill:url(#SVGID_62_);}
	.st65{fill:url(#SVGID_63_);}
	.st66{fill:url(#SVGID_64_);}
	.st67{fill:url(#SVGID_65_);}
	.st68{fill:url(#SVGID_66_);}
	.st69{fill:url(#SVGID_67_);}
	.st70{fill:url(#SVGID_68_);}
	.st71{fill:url(#SVGID_69_);}
	.st72{fill:url(#SVGID_70_);}
	.st73{fill:url(#SVGID_71_);}
	.st74{fill:url(#SVGID_72_);}
	.st75{fill:url(#SVGID_73_);}
	.st76{fill:url(#SVGID_74_);}
	.st77{fill:url(#SVGID_75_);}
	.st78{fill:url(#SVGID_76_);}
	.st79{fill:url(#SVGID_77_);}
	.st80{fill:url(#SVGID_78_);}
	.st81{fill:url(#SVGID_79_);}
	.st82{fill:url(#SVGID_80_);}
	.st83{fill:url(#SVGID_81_);}
	.st84{fill:url(#SVGID_82_);}
	.st85{fill:url(#SVGID_83_);}
	.st86{fill:url(#SVGID_84_);}
	.st87{fill:url(#SVGID_85_);}
	.st88{fill:url(#SVGID_86_);}
	.st89{fill:url(#SVGID_87_);}
	.st90{fill:url(#SVGID_88_);}
	.st91{fill:url(#SVGID_89_);}
	.st92{fill:url(#SVGID_90_);}
	.st93{fill:url(#SVGID_91_);}
	.st94{fill:url(#SVGID_92_);}
	.st95{fill:url(#SVGID_93_);}
	.st96{fill:url(#SVGID_94_);}
	.st97{fill:url(#SVGID_95_);}
	.st98{fill:url(#SVGID_96_);}
	.st99{fill:url(#SVGID_97_);}
	.st100{fill:url(#SVGID_98_);}
	.st101{fill:url(#SVGID_99_);}
	.st102{fill:url(#SVGID_100_);}
	.st103{fill:url(#SVGID_101_);}
	.st104{fill:url(#SVGID_102_);}
	.st105{fill:url(#SVGID_103_);}
	.st106{fill:url(#SVGID_104_);}
	.st107{fill:url(#SVGID_105_);}
	.st108{fill:url(#SVGID_106_);}
	.st109{fill:url(#SVGID_107_);}
	.st110{fill:url(#SVGID_108_);}
	.st111{fill:url(#SVGID_109_);}
	.st112{fill:url(#SVGID_110_);}
	.st113{fill:url(#SVGID_111_);}
	.st114{fill:url(#SVGID_112_);}
	.st115{fill:url(#SVGID_113_);}
	.st116{fill:url(#SVGID_114_);}
	.st117{fill:url(#SVGID_115_);}
	.st118{fill:url(#SVGID_116_);}
	.st119{fill:url(#SVGID_117_);}
	.st120{fill:url(#SVGID_118_);}
	.st121{fill:url(#SVGID_119_);}
	.st122{fill:url(#SVGID_120_);}
	.st123{fill:url(#SVGID_121_);}
	.st124{fill:#B71C46;}
	.st125{fill:#8D47C4;}
	.st126{fill:#20B9CB;}
	.st127{fill:#85CA55;}
	.st128{fill:#BB1E49;}
	.st129{fill:#319517;}
	.st130{fill:#621946;}
	.st131{fill:#891789;}
	.st132{fill:#641D49;}
	.st133{fill:#F17600;}
	.st134{fill:#040404;}
	.st135{fill:#030303;}
	.st136{fill:#050505;}
	.st137{fill:#0B0B0B;}
	.st138{fill:#0A0A0A;}
	.st139{fill:#080808;}
	.st140{fill:#070707;}
	.st141{fill:#060606;}
	.st142{fill:#0E0E0E;}
	.st143{fill:#0D0D0D;}
	.st144{fill:#0C0C0C;}
	.st145{fill:#121212;}
	.st146{fill:#1C1C1C;}
	.st147{fill:#141414;}
	.st148{fill:#0F0F0F;}
	.st149{fill:#111111;}
	.st150{fill:#161616;}
	.st151{fill:#191919;}
	.st152{fill:#171717;}
	.st153{fill:#101010;}
	.st154{fill:#090909;}
</style>
<g>
	<path class="st134" d="M258.6,148.1c-16.8,0-33.7,0.2-50.5-0.1c-13.3-0.2-16.3-4.5-16.1-21.5c0.1-14.7,3.2-18.4,16.5-18.5
		c33.7-0.2,67.3-0.1,101-0.1c5.5,0,11.1-0.5,10.8,7.8c-0.3,8.5-6.4,7-11.5,7c-30.8,0.1-61.6,0-92.4,0.2c-3.7,0-9.8-2.9-9.5,5.3
		c0.3,8.1,6.4,4.8,10,4.8c30.8,0.2,61.6,0.1,92.4,0.1c5.2,0,11.2-1.4,11.1,7.3c-0.1,8.2-5.8,7.6-11.2,7.6
		C292.3,148.1,275.4,148.1,258.6,148.1z"/>
	<path class="st0" d="M397.5,369.2c-1.9-3.1-4.2-6.1-6.4-9c-24.6-31.8-49-63.7-74-95.2c-5.5-6.9-7.6-13.8-7.4-22.4
		c0.5-23.4,0.4-46.8-0.1-70.2c-0.1-5.4,4.4-14.6-6.9-14.9c-12.6-0.3-7.3,9.7-7.5,15.3c-0.6,18,0.9,36.2-0.5,54.2
		c-1.8,21.9,1.8,41.3,18.4,56.9c0.4,0.4,0,1.5,0,2.5c-38.2,0-76.3,0-116.4,0c6-7.9,10.4-14.3,15.4-20.2c3.6-4.3,5.3-8.7,5.3-14.5
		c-0.2-27.9-0.1-55.8-0.1-83.8c0-5.3,1-11-7.6-10.7c-8.6,0.2-7.2,6.2-7.2,11.3c-0.1,25.5-0.2,50.9,0.1,76.4
		c0.1,6.5-1.5,11.6-5.6,16.9c-26.8,34.7-53.4,69.7-80,104.6c-5.8,7.6-9.2,15.9-5.1,25.2c4.2,9.5,13.3,11.5,22.5,12.4
		c2.8,0.3,5.7,0.1,8.6,0.1c76.4-0.4,152.8-0.9,229.1-1.3c2.9,0,5.8,0,8.6-0.2C399.9,400.8,407.5,385.8,397.5,369.2z M386.6,383.9
		c-2.2,5.1-7.7,3.8-12,3.8c-39.4,0.1-78.8,0.1-118.2,0.1c0,0.3,0,0.6,0,0.9c-39,0-78,0-117-0.1c-4.8,0-10.9,1.4-13.4-3.7
		c-2.6-5.1,2.4-9.1,5.2-12.9c15.8-20.9,32-41.6,47.7-62.7c3.5-4.7,7.3-6.7,13.3-6.6c42.7,0.2,85.4,0.2,128.1,0
		c5.4,0,9.1,1.5,12.4,5.9c16.3,21.6,33,42.9,49.5,64.4C384.6,376.3,388.3,379.7,386.6,383.9z"/>
	<path class="st152" d="M227,340.3c-4.5-0.5-7.6-2.3-8.1-6.5c-0.5-4.7,1.7-7.9,6.6-8.4c4.4-0.4,7,2.4,7.7,6.2
		C234.1,336.5,230.5,338.7,227,340.3z"/>
	<path class="st153" d="M187,367.1c-0.3,4.4-3,7.1-6.8,7.3c-4.5,0.2-7.8-2.7-7.7-7.4c0.1-4.7,3.1-7.4,7.9-7
		C184.6,360.3,186.6,363.2,187,367.1z"/>
	<path class="st153" d="M320.3,340.3c-4.3-1-7.5-3.4-7.2-8.1c0.2-4.1,2.9-6.6,7.2-6.7c4.3-0.1,6.9,2.5,7.3,6.5
		C328,336.8,324.7,339.1,320.3,340.3z"/>
	<path class="st149" d="M349.9,371.2c-0.8,5.5-3.9,8-8.4,7.5c-3.8-0.5-6.7-3.2-6.3-7.5c0.4-4.9,3.6-7.1,8.2-6.7
		C347.7,364.8,349.5,367.8,349.9,371.2z"/>
	<path class="st144" d="M276.9,359.7c-0.4,4.4-2.9,7.4-6.9,7.4c-4.8,0.1-7.6-3.1-7.3-8c0.3-4.2,2.9-6.8,7.4-6.5
		C274.5,352.8,276.4,355.7,276.9,359.7z"/>
</g>
</svg>
